<svg width="22" height="24" viewBox="0 0 22 24" fill="none" xmlns="http://www.w3.org/2000/svg">
<path fill-rule="evenodd" clip-rule="evenodd" d="M19.0504 2.96393C18.0985 2.01202 16.5551 2.01202 15.6032 2.96393L3.75238 14.8149C2.16587 16.4014 2.16587 18.9736 3.75238 20.5601C5.33888 22.1466 7.91112 22.1466 9.49762 20.5601L17.8317 12.226C18.149 11.9087 18.6634 11.9087 18.9807 12.226C19.298 12.5433 19.298 13.0578 18.9807 13.3751L10.6467 21.7092C8.42556 23.9303 4.82444 23.9303 2.60333 21.7092C0.382224 19.4881 0.382223 15.8869 2.60333 13.6658L14.4542 1.81488C16.0407 0.228374 18.6129 0.228373 20.1994 1.81488C21.7859 3.40138 21.7859 5.97361 20.1994 7.56012L8.35546 19.4041C8.3524 19.4072 8.34931 19.4103 8.34618 19.4134L8.33874 19.4208L8.33635 19.4232L8.33392 19.4256C7.38078 20.3629 5.84846 20.3581 4.90143 19.4111C3.94953 18.4592 3.94953 16.9158 4.90142 15.9639L13.3628 7.50235C13.6801 7.18505 14.1945 7.18504 14.5118 7.50234C14.8291 7.81964 14.8292 8.33408 14.5119 8.65139L6.05048 17.113C5.73318 17.4303 5.73318 17.9447 6.05048 18.262C6.36545 18.577 6.87477 18.5793 7.19248 18.269L19.0504 6.41107C20.0023 5.45917 20.0023 3.91583 19.0504 2.96393Z" fill="#A4A4FD"/>
</svg>
